<?xml version="1.0" encoding="utf-8"?>
<!-- Generator: Adobe Illustrator 23.0.3, SVG Export Plug-In . SVG Version: 6.00 Build 0)  -->
<svg version="1.1" id="Layer_1" xmlns="http://www.w3.org/2000/svg" xmlns:xlink="http://www.w3.org/1999/xlink" x="0px" y="0px"
	viewBox="0 0 42 33" style="enable-background:new 0 0 42 33;" xml:space="preserve">
	<style type="text/css">
		.st0{fill-rule:evenodd;clip-rule:evenodd;fill:#58595b;}
	</style>
	<path class="st0" d="M38.3,27.1h-0.5V33l-6.3-5.9h-11c-1.8,0-3.2-1.3-3.7-3h1.2c0.3,1.1,1.2,1.7,2.3,1.7h11.5l4.6,4.4v-4.4h1.7
		c1.4,0,2.5-1.1,2.5-2.5V12.8c0-1.4-1.1-2.5-2.5-2.5h-6.4V9.1h6.4c2.1,0,3.8,1.7,3.8,3.8v10.5C42,25.3,40.3,27.1,38.3,27.1z
		M25.1,21.4H12.3l-7.4,6.9v-6.9H4.4c-2.5,0-4.4-2-4.4-4.5V4.5C0,2,2,0,4.4,0h20.8c2.5,0,4.4,2,4.4,4.5v12.4
		C29.7,19.4,27.7,21.4,25.1,21.4z M28.2,4.5c0-1.6-1.2-3-2.9-3H4.4c-1.5,0-2.9,1.3-2.9,3V17c0,1.6,1.2,3,2.9,3h2v5l5.4-5.2h13.5
		c1.5,0,2.9-1.3,2.9-3V4.5z"/>
	</svg>
