<?xml version="1.0" encoding="utf-8"?>
<!-- Generator: Adobe Illustrator 23.0.3, SVG Export Plug-In . SVG Version: 6.00 Build 0)  -->
<svg version="1.1" id="Camada_1" xmlns="http://www.w3.org/2000/svg" xmlns:xlink="http://www.w3.org/1999/xlink" x="0px" y="0px"
	 viewBox="0 0 73 60.6" style="enable-background:new 0 0 73 60.6;" xml:space="preserve">
<style type="text/css">
	.st0{fill:#231F20;}
</style>
<g>
	<g>
		<path class="st0" d="M15.8,52.6H6.2c-2.3,0-4.2-1.9-4.2-4.2V6.2C2,3.9,3.9,2,6.2,2h24.5c2.3,0,4.2,1.9,4.2,4.2v18.3
			c0.7,0.1,1.3,0.2,2,0.3V6.2c0-3.4-2.8-6.2-6.2-6.2H6.2C2.8,0,0,2.8,0,6.2v42.1c0,3.4,2.8,6.2,6.2,6.2H17
			C16.5,53.9,16.1,53.2,15.8,52.6z"/>
		<path class="st0" d="M13.4,45.7H6.8c-0.7,0-1.3-0.6-1.3-1.3v-38c0-0.7,0.6-1.3,1.3-1.3h23.5c0.7,0,1.3,0.6,1.3,1.3V23
			c0.3-0.1,0.7-0.1,1-0.2V6.4c0-1.3-1-2.3-2.3-2.3H6.7c-1.3,0-2.3,1-2.3,2.3v38c0,1.3,1,2.3,2.3,2.3H13C13.1,46.4,13.2,46,13.4,45.7
			z"/>
	</g>
	<g>
		<path class="st0" d="M68.8,30.4h-4.6c-0.8,0-1.6,0.3-2.3,0.7c-0.5-3.1-3.3-5.6-6.6-5.6H40.8c-1.7,0-3.1,1.4-3.1,3.1
			c0,1.8,0.7,3.3,1.8,4.5h-2.7H34H20.6c-2.3,0-4.1,1.9-4.1,4.1v0.1c0,2.2,1.7,3.9,3.3,4.1c-0.4,0.6-0.6,1.4-0.6,2.2v0.1
			c0,2.3,1.9,4.1,3.6,4.1l0,0c-0.4,0.6-0.6,1.4-0.6,2.2v0.1c0,2.3,1.9,4.1,3.6,4.1h0.1c-0.4,0.6-0.6,1.4-0.6,2.2v0.1
			c0,2.3,1.9,4.1,3.6,4.1h16.7h1.1h8.7c2,0,3.9-0.9,5.1-2.4c0.7,1.4,2.1,2.4,3.7,2.4h4.6c2.3,0,4.2-1.9,4.2-4.2V34.5
			C73,32.3,71.1,30.4,68.8,30.4z M55.3,58.6h-8.7h-1H28.7c-0.5,0-1.6-0.9-1.6-2.1v-0.1c0-1.2,1-2.1,2.1-2.1H39l0,0v-2l0,0H25.6
			c-0.5,0-1.6-0.9-1.6-2.1v-0.1c0-1.2,1-2.1,2.1-2.1h12.8l0,0v-2l0,0H22.7c-0.5,0-1.6-0.9-1.6-2.1v-0.1c0-1.2,0.9-2.1,2.1-2.1H39
			l0,0v-2l0,0H23.3c0,0,0,0-0.1,0H20c-0.5,0-1.6-0.9-1.6-2.1v-0.1c0-1.2,1-2.1,2.1-2.1h13.4h2.8h7.4h2.2h5.3v-2h-5.3h-2.2
			c-2.5,0-4.5-2-4.5-4.5c0-0.6,0.5-1.1,1.1-1.1h14.6c2.6,0,4.7,2.1,4.7,4.7v2l0,0v0.4l0,0v19.4C60,56.5,57.9,58.6,55.3,58.6z
			 M71,56.5c0,1.2-1,2.2-2.2,2.2h-4.6c-1.2,0-2.2-1-2.2-2.2V54l0,0V34.5c0-1.2,1-2.2,2.2-2.2h4.6c1.2,0,2.2,1,2.2,2.2V56.5z"/>
		<path class="st0" d="M66.5,52.3c-1.4,0-2.5,1.1-2.5,2.5s1.1,2.5,2.5,2.5s2.5-1.1,2.5-2.5S67.9,52.3,66.5,52.3z M66.5,56.2
			c-0.8,0-1.5-0.7-1.5-1.5s0.7-1.5,1.5-1.5s1.5,0.7,1.5,1.5S67.3,56.2,66.5,56.2z"/>
	</g>
</g>
</svg>
