<svg version="1.1" id="Camada_1" xmlns="http://www.w3.org/2000/svg" x="0" y="0" viewBox="0 0 73 60.6" xml:space="preserve"><style>.st0{fill:#231f20}</style><path class="st0" d="M15.8 52.6H6.2c-2.3 0-4.2-1.9-4.2-4.2V6.2C2 3.9 3.9 2 6.2 2h24.5c2.3 0 4.2 1.9 4.2 4.2v18.3c.7.1 1.3.2 2 .3V6.2c0-3.4-2.8-6.2-6.2-6.2H6.2C2.8 0 0 2.8 0 6.2v42.1c0 3.4 2.8 6.2 6.2 6.2H17c-.5-.6-.9-1.3-1.2-1.9z"/><path class="st0" d="M13.4 45.7H6.8c-.7 0-1.3-.6-1.3-1.3v-38c0-.7.6-1.3 1.3-1.3h23.5c.7 0 1.3.6 1.3 1.3V23c.3-.1.7-.1 1-.2V6.4c0-1.3-1-2.3-2.3-2.3H6.7c-1.3 0-2.3 1-2.3 2.3v38c0 1.3 1 2.3 2.3 2.3H13c.1-.3.2-.7.4-1z"/><path class="st0" d="M68.8 30.4h-4.6c-.8 0-1.6.3-2.3.7-.5-3.1-3.3-5.6-6.6-5.6H40.8c-1.7 0-3.1 1.4-3.1 3.1 0 1.8.7 3.3 1.8 4.5H20.6c-2.3 0-4.1 1.9-4.1 4.1v.1c0 2.2 1.7 3.9 3.3 4.1-.4.6-.6 1.4-.6 2.2v.1c0 2.3 1.9 4.1 3.6 4.1-.4.6-.6 1.4-.6 2.2v.1c0 2.3 1.9 4.1 3.6 4.1h.1c-.4.6-.6 1.4-.6 2.2v.1c0 2.3 1.9 4.1 3.6 4.1h26.5c2 0 3.9-.9 5.1-2.4.7 1.4 2.1 2.4 3.7 2.4h4.6c2.3 0 4.2-1.9 4.2-4.2V34.5c0-2.2-1.9-4.1-4.2-4.1zM55.3 58.6H28.7c-.5 0-1.6-.9-1.6-2.1v-.1c0-1.2 1-2.1 2.1-2.1H39v-2H25.6c-.5 0-1.6-.9-1.6-2.1v-.1c0-1.2 1-2.1 2.1-2.1h12.8v-2H22.7c-.5 0-1.6-.9-1.6-2.1v-.1c0-1.2.9-2.1 2.1-2.1H39v-2H20c-.5 0-1.6-.9-1.6-2.1v-.1c0-1.2 1-2.1 2.1-2.1h31.1v-2h-7.5c-2.5 0-4.5-2-4.5-4.5 0-.6.5-1.1 1.1-1.1h14.6c2.6 0 4.7 2.1 4.7 4.7v21.8c0 2.2-2.1 4.3-4.7 4.3zM71 56.5c0 1.2-1 2.2-2.2 2.2h-4.6c-1.2 0-2.2-1-2.2-2.2v-22c0-1.2 1-2.2 2.2-2.2h4.6c1.2 0 2.2 1 2.2 2.2v22z"/><path class="st0" d="M66.5 52.3c-1.4 0-2.5 1.1-2.5 2.5s1.1 2.5 2.5 2.5 2.5-1.1 2.5-2.5-1.1-2.5-2.5-2.5zm0 3.9c-.8 0-1.5-.7-1.5-1.5s.7-1.5 1.5-1.5 1.5.7 1.5 1.5-.7 1.5-1.5 1.5z"/></svg>