<svg xmlns="http://www.w3.org/2000/svg" viewBox="0 0 48 48"><path d="M47.4 30.7L42.1 36c-.8.8-2.1.8-3 0l-.4-.4 1.2-1.2.4.4c.1.1.4.1.5 0l5.3-5.3c.1-.1.1-.4 0-.5l-2.9-2.9c-.1-.1-.4-.1-.5 0l-5.3 5.3c-.1.1-.1.4 0 .5l.4.4-1.2 1.2-.4-.4c-.8-.8-.8-2.1 0-3l5.3-5.3c.8-.8 2.1-.8 3 0l2.9 2.9c.8.8.8 2.2 0 3zm-11.6-5h-8.1v-1.4h8.1c1.3 0 2.4-1.1 2.4-2.4V12H27.7l-5-5.9h15.5V3.9c0-1.3-1.1-2.4-2.4-2.4H10.2c-1.3 0-2.4 1.1-2.4 2.4v.8H6.4v-.9C6.3 1.7 8.1 0 10.2 0h25.6c2.1 0 3.9 1.7 3.9 3.9v17.9c-.1 2.2-1.8 3.9-3.9 3.9zM25.5 13.2v20.1c0 2.2-1.8 4-4 4H4c-2.2 0-4-1.8-4-4V10.1c0-2.2 1.8-4 4-4h15.5l6 7.1zm-5.6-4.8V12c0 .4.4.8.8.8h2.9l-3.7-4.4zm-1.3 3.7V7.3H4c-1.5 0-2.8 1.2-2.8 2.7v23.3C1.2 34.8 2.4 36 4 36h17.5c1.5 0 2.8-1.2 2.8-2.7V14.1h-3.6c-1.2 0-2.1-.9-2.1-2zm3.5 19.4h-2.9V17.7h2.9v13.8zm-4.4-13.8h.9v13.8h-.9V17.7zm-2.5 0h2.1v13.8h-2.1V17.7zm-2.8 0h1.7v13.8h-1.7V17.7zm-1.7 0h.9v13.8h-.9V17.7zm-2.2 0h1.6v13.8H8.5V17.7zM6.9 31.5V17.7h.9v13.8h-.9zM3.1 17.7H6v13.8H3.1V17.7zM32 40.2c-.3-.3-.3-.9 0-1.2l7-7c.3-.3.9-.3 1.2 0 .3.3.3.9 0 1.2l-7 7c-.3.3-.8.3-1.2 0zm-1.9-3.9c.8-.8 2.1-.8 3 0l.4.4-1.2 1.2-.4-.4c-.1-.1-.4-.1-.5 0l-5.3 5.3c-.1.1-.1.4 0 .5l2.9 2.9c.1.1.4.1.5 0l5.3-5.3c.1-.1.1-.4 0-.5l-.5-.4 1.2-1.2.4.4c.8.8.8 2.1 0 3l-5.3 5.3c-.8.8-2.1.8-3 0l-2.9-2.9c-.8-.8-.8-2.1 0-3l5.4-5.3z" fill-rule="evenodd" clip-rule="evenodd" fill="#fff"/></svg>