<svg xmlns="http://www.w3.org/2000/svg" xmlns:xlink="http://www.w3.org/1999/xlink" width="298" height="301" viewBox="0 0 298 301"><defs><path id="a" d="M1497.6 555.26a5.47 5.47 0 01-5.46 5.46c-.71 0-1.43-.15-2.11-.45l-34.41 67.62a5.46 5.46 0 01-2.9 10.06 5.43 5.43 0 01-4.01-1.79l-69.75 35.59a5.46 5.46 0 11-10.33 2.39l.02-.23-77.82-12.34a5.43 5.43 0 01-4.97 3.22 5.46 5.46 0 01-4.59-8.39l-56.26-56.32c-.79.4-1.61.6-2.44.6a5.46 5.46 0 01-1.01-10.8l-11.76-74.37a5.46 5.46 0 11-.35-10.89c.71 0 1.41.14 2.08.43l34.55-67.9a5.46 5.46 0 013.01-9.98c1.52 0 2.98.65 4.01 1.8l68.62-35.01a5.17 5.17 0 01-.64-2.5 5.47 5.47 0 015.46-5.46c2.88 0 5.28 2.3 5.43 5.16l77.88 12.35a5.46 5.46 0 0110.71 1.44c0 1.12-.35 2.18-1 3.11l54.62 54.67a5.42 5.42 0 018.92 4.19 5.41 5.41 0 01-3.59 5.1l12.3 77.8.33-.02a5.47 5.47 0 015.46 5.46zm-50.34 77.23a5.4 5.4 0 014.41-5.34l-1.08-10.4a4.67 4.67 0 01-3.11-1.19l-20.9 19.32c.38.49.65 1.04.81 1.61l19.97-3.08c-.07-.34-.1-.63-.1-.92zm-83.82 37.12l-10.86-5.18a4.8 4.8 0 01-.63.85zm-152.67-154.23l11.76 74.38h.04l.17.01 1.23-12.41a4.96 4.96 0 01-.15-9.66v-46.4l-10.29-7.6a5.43 5.43 0 01-2.76 1.68zm43.78-82.75a5.47 5.47 0 01-5.46 5.46c-.73 0-1.45-.16-2.15-.47l-34.55 67.89.2.13 9.27-10.93a4.94 4.94 0 01.06-6.93 4.87 4.87 0 016.22-.6l17.33-23.88.59-7.6a4.73 4.73 0 01-3.87-4.63 4.73 4.73 0 017.84-3.53l17.28-15.94a4.61 4.61 0 01-.81-1.61l-11.98 2.16.03.48zm-28.08 63.46c-.55.13-1.12.15-1.67.09v24.63l10.28 7.59c.44-.49.97-.87 1.55-1.13zm49.68-67.45l7.91.79-.21-.61a4.71 4.71 0 01-2.85-2.79l-4.94 1.61c.06.32.09.66.09 1zm37.86 3.76c.17-.85.59-1.65 1.19-2.28l-25.08-5.73c0 .28-.03.57-.09.88l13.18 6.06zm127.82 8.96c0-.32.06-.64.19-.95l-16.15-10.67c-.21.47-.48.9-.81 1.28l11.09 15.28 5.9-3.92a2.43 2.43 0 01-.22-1.02zm-151.55 157.26c0-.87.31-1.71.87-2.37l-32.44-35.15c-.64.46-1.37.71-2.14.71l-.07-.01 1.73 33.95.55-.03a4.7 4.7 0 014.68 4.27l27-.24a3.56 3.56 0 01-.18-1.13zm73.74-184.44c0 .56-.13 1.1-.39 1.62l20.13 13.17a4.68 4.68 0 015.51 1.53 3.68 3.68 0 012.98.81l11.58-8.25-32.43-10.54-7.4 1.42.02.24zm93.03 50.07c0-.17.02-.34.04-.53l-8.03.38 3.45 4.76 5.45-1.91a4.5 4.5 0 01-.91-2.7zm6.97 114.42c0-.28.04-.57.12-.87l-56.52-21.59a3.68 3.68 0 01-2.98 1.96l-2.05 41.06a3.7 3.7 0 012.64 1.93l58.9-21.66a3.06 3.06 0 01-.11-.83zm-128.19-130.62c0-.22.02-.45.07-.69l-32.77-15.06-17.69-1.75 12.56 35.08a3.66 3.66 0 013.85 1.54l34.47-17.28a3.7 3.7 0 01-.49-1.84zm-20.11-10.97a4.74 4.74 0 01-1.82-3.71l-7.97-.79zm7.61-3.73a4.73 4.73 0 01-5.65 4.63l18.5 8.5a3.67 3.67 0 014.17-2.02l1.31-5.53a3.22 3.22 0 01-2.4-3.12l.01-.2-16.18-3.69c.16.47.24.95.24 1.43zm142.39 56.03l.29-.26-13.89-19.15-11.49 4.01a4.69 4.69 0 01-6.57 2.29l-12.22 4.27a3.5 3.5 0 01.04 1.34l42.57 12.26a4.95 4.95 0 011.27-4.76zm-214.38 45.15l4.82 19.91a3.23 3.23 0 011.32.1l6.99-17.75a2.33 2.33 0 01-.86-.93zm11.92-50.2l2.67 48.2c.73.08 1.38.51 1.74 1.15l37.87-17.4a3.58 3.58 0 01.3-2.92l-40.58-30.11c-.54.56-1.24.94-2 1.08zm77.95-39.56a3.66 3.66 0 011.87 2.36l31.13-9.9a2.36 2.36 0 01-.04-.28l-28.51-.49a3.24 3.24 0 01-3.09 2.59zm-34.04 102.76c0-.26.04-.52.1-.79l-39.71-10.62a2.2 2.2 0 01-.43.48l13.15 20.02a3.65 3.65 0 014.78 1.41l22.21-9.73c-.07-.28-.1-.53-.1-.77zm-39.2-12.71c0 .15-.01.29-.05.45l39.65 10.6a3.7 3.7 0 012.65-1.97l-.01-.04-1.41-25a3.68 3.68 0 01-2.87-1.75l-37.97 17.45.01.26zm136.16-69.11c0-.87.3-1.7.86-2.37l-24.85-23.92a3.7 3.7 0 01-4.28.26l-36.72 44.82c.4.33.73.73.96 1.19l64.07-19.42a3.43 3.43 0 01-.04-.56zm-94.41 53.08l1.41 25.05c1.39.1 2.61 1 3.14 2.31l50.23-9.01c.03-.34.1-.67.21-.98l-30.84-11.36-21.54-7.93a3.69 3.69 0 01-2.61 1.92zm74.07-9.67c0-.33.05-.66.15-1l-.35-.14-43.74-18.57c-.29.43-.66.79-1.09 1.07l28.05 43.51a3.58 3.58 0 012.82.04l15.39-22.16a3.68 3.68 0 01-1.23-2.75zm-49.54-19.11l-22.32 22.87c.52.66.81 1.46.81 2.29 0 .26-.04.54-.11.83l52.51 19.34c.24-.36.53-.66.87-.91l-28.09-43.56a3.6 3.6 0 01-3.67-.86zm68.17 61.35l-14.37-38.58a3.55 3.55 0 01-2.28-.39l-15.34 22.1a3.71 3.71 0 011.34 3.69l22.87 11.08 6.64 3.22a3.7 3.7 0 011.14-1.12zm-27.27-112.27c-.28-.29-.5-.62-.67-.99l-31.27 9.96a3.71 3.71 0 01-3.22 3.64l-2.99 31.96c.46.03.91.15 1.34.35zm-36.17 151.12c.3.22.56.47.77.76l30.82-17.65 30.4-17.42a3.72 3.72 0 01-.1-2.61l-29.39-14.23a3.68 3.68 0 01-4.9 1.68zm67.63-38.65l32.03-29a3.64 3.64 0 01-.56-1.94l.01-.25-47.16-9.98a3.72 3.72 0 01-1.75 2.01l14.34 38.5c.3-.08.57-.12.85-.12.8 0 1.59.28 2.24.78zm-.68-82.68a3.64 3.64 0 01-1.5-1.74l-64.04 19.42a3.74 3.74 0 01-.11 2.03l44.02 18.69a3.62 3.62 0 014.32-1.66zm-105.89 3.81l8.67 38.81a3.6 3.6 0 012.56.74l22.39-22.95a3.5 3.5 0 01-.41-2.86l-31.37-15.21a3.56 3.56 0 01-1.84 1.47zm-39.79 85.22l18.05 1.29c.16-.81.59-1.54 1.22-2.08l-.64-.98-12.56-19.11c-.32.1-.63.13-.99.07l-6.99 17.78a3.7 3.7 0 011.91 3.03zm52.93-7.51l22.23 39.37c.9-.38 1.88-.38 2.77-.01l27.63-49.52a3.63 3.63 0 01-1.26-2.18l-50.03 8.97.03.49c0 1.12-.51 2.17-1.37 2.88zm126.32-32.69l-19.77-33.03c-1.33.6-2.84.34-3.9-.57l-25.34 22.91c.44.62.67 1.34.67 2.1l-.02.31 47.15 9.98c.24-.68.66-1.27 1.21-1.7zm-102.6-67.08l-34.63 17.36a3.45 3.45 0 01.02 2.41l31.29 15.17a3.66 3.66 0 012.5-1.83l2.99-32.04a3.6 3.6 0 01-2.17-1.07zm-95.94 84.98l13.89 19.25c.15-.08.28-.14.42-.19l-4.89-20.24-7.58-.82a4.8 4.8 0 01-1.84 2zm174.9-57.11l-6.23-9.56a3.6 3.6 0 01-2.86.31l-17.32 36.77c.16.1.3.2.43.31l25.35-22.91a3.68 3.68 0 01.63-4.92zm-10.06-15.86l-14.24-25.21a3.62 3.62 0 01-3.51-.1 4.72 4.72 0 01-6.38-1.26l-.19.04.03.45c0 .79-.25 1.55-.74 2.2l24.91 23.96.12-.08zm-22.95-33.16l-19.72-12.91a3.6 3.6 0 01-.19.21l12.99 16.61a3.66 3.66 0 015.1 1.36 4.51 4.51 0 01-.23-1.4c0-1.54.78-2.99 2.05-3.87zm-24.46-12.15l-13.3 16.55c.37.5.59 1.06.63 1.66l28.47.5a3.7 3.7 0 011.02-2.08l-12.98-16.61a3.73 3.73 0 01-3.84-.02zm-113.23 86.22l19.44 29.22c.13-.07.27-.12.42-.17l-2.67-48.21a3.66 3.66 0 01-2.01-.78l-14.64 14.69a3.67 3.67 0 01-.54 5.25zm18.73 29.8l-19.51-29.33-.37.14 7.09 29.37 12.26 1.33v-.04c0-.54.18-1.06.53-1.47zm-13.76.07l-7.02-29.08-.12.01-3.29 22.64a4.72 4.72 0 013.42 5.67zm9.26 27.07l32.44 35.14c.2-.14.4-.26.61-.36l-9.88-31.71a3.69 3.69 0 01-4.34-3.44l-18.05-1.29a3.69 3.69 0 01-.78 1.66zm24.04 2.79l9.89 31.71a3.74 3.74 0 011.36.02l14.51-44.19a3.62 3.62 0 01-1.63-1.65l-22.13 9.71a3.67 3.67 0 01-2 4.4zm12.12 32.01c1 .47 1.72 1.35 1.99 2.42l35.57-4.52v-.01c0-1.17.55-2.27 1.49-2.96l-22.21-39.35a3.43 3.43 0 01-2.33.25zm102.85 6.58a3.66 3.66 0 013.28-2.69l2.05-41.08a3.66 3.66 0 01-2.31-1.4l-61.22 35.07c.2.46.29.94.29 1.41v.09zm53.15-132.68l-3.65-5.03-36.4 1.72a3.64 3.64 0 01-1.15 2.5l6.28 9.62a3.69 3.69 0 014.92 1.67l11.59-4.05a4.72 4.72 0 117.87-3.48c0 .24-.02.49-.07.76zm-93.86-52.45l-.08-.09-33.14 14.64 14.99 3.42a3.25 3.25 0 013.04-2.14c.7 0 1.38.23 1.94.66zm-62.24 54.02l-29.23 9.27a3.64 3.64 0 01-.41 2.49l40.59 30.11a3.6 3.6 0 011.41-.92l-8.66-38.81a3.7 3.7 0 01-3.7-2.14zm62.41 156.51l40.69-23.01a3.57 3.57 0 01-.28-1.4v-.09l-57.92-8.59a3.72 3.72 0 01-1.51 2.07l14.83 29.73a3.7 3.7 0 014.19 1.29zm83.91-110.35c.94 0 1.83.35 2.51 1l23.35-19.5a3.54 3.54 0 01-.46-1.07 4.58 4.58 0 01-2.28-2.13l-43.27-12.46a3.63 3.63 0 01-1.1 1.46l19.76 33.02c.49-.21.99-.32 1.49-.32zm5.49-53.65l-11.38-15.69-24.8 16.44c.16.3.27.61.33.94zm-77.66-51.34l-19.01-6.18c-.11.46-.3.92-.56 1.35l7.11 5.24a3.69 3.69 0 016.69.7zm-74.49 57.3c0-.29.04-.57.12-.89l-40.9-15.59-4.26 5.86 11.07 18.71a3.67 3.67 0 014.81 1.84l29.22-9.28a3.74 3.74 0 01-.06-.65zm-34.77 8.55l-10.85-18.36-3.08 4.23-2.61 33.44c.44.12.85.31 1.22.59l14.68-14.72a3.56 3.56 0 01-.57-3.46l.17-.42c.26-.52.61-.96 1.04-1.3zm-15.02-12.62l-16.42 22.62a4.94 4.94 0 011.05 5.39l9.91 5.37c.18-.25.38-.48.6-.67l.34-.27a3.69 3.69 0 012.03-.64zm-16.89 110.86c-.25.25-.55.48-.91.69l25.48 35.12a3.77 3.77 0 011.55.07l2.02-7.31a4.71 4.71 0 01.83-8.65l-1.82-34.27a3.69 3.69 0 01-2.27-1.84l-24.74 9.34a4.97 4.97 0 01-.14 6.85zm96.89 75.36c.51.17.97.45 1.34.8l25.13-20.74a3.68 3.68 0 011.07-5.04l-14.83-29.73c-.48.17-1 .25-1.51.19zm101.08-44.39l15.89 2.98 21.25-29.28-58 21.34c.07.31.1.57.1.83l-.01.22zm-20.94-3.01c-.16.51-.42.97-.77 1.36l15.92 27.99a4.95 4.95 0 014.56.24l16.53-22.78zm60.34-28.46l-.17-.37a4.85 4.85 0 01-.82-1.85l-1.2-2.67-20.76-46.49a3.67 3.67 0 01-3.49-.72l-31.98 28.95c.44.63.68 1.36.68 2.11 0 .28-.04.56-.12.87l56.52 21.59c.3-.58.77-1.07 1.34-1.42zm2.2-87.42l-5.6-19.36a4.32 4.32 0 01-3.77-1.05l-5.56 1.94 13.74 18.94c.36-.21.76-.36 1.19-.47zm-48.67-55.85a4.95 4.95 0 01-2.87-5.07l-11.54-3.76-12.05 8.57a3.65 3.65 0 01-.55 4.91l14.29 25.32a3.66 3.66 0 012.4 0zm-144.6-.11a4.94 4.94 0 01-6 .76l-13.84 19.08 40.66 15.5a3.7 3.7 0 011.58-1.55l-12.7-35.49-8.36-.83a4.88 4.88 0 01-1.34 2.53zm-25.78 26.37l-1.63-2.75c-.09.01-.19.03-.29.03l-.47 6.01zm.58-.81l3.86-5.31-1.82-.7a4.67 4.67 0 01-3.29 3.89zm-20.63 37.07c-.44.44-.94.78-1.51 1.02l10.17 31.18c.44-.1.82-.15 1.18-.11l3.28-22.61c-1-.23-1.85-.88-2.36-1.8l-.21-.39a3.79 3.79 0 01-.23-1.92l.01-.06.1-.43.08-.25-9.92-5.36c-.19.28-.38.52-.59.73zm-1.95 73.26c.26.12.53.27.8.46l25.24-9.52a3.38 3.38 0 01.09-2.01l.15-.41c.21-.43.49-.81.84-1.13l-14.01-19.39a4.56 4.56 0 01-2.53.14zm59.99 74.27l22.78 7.41-21.51-8.42c-.34.43-.78.78-1.27 1.01zm1.76-1.81l32.2 12.62c.26-.5.64-.93 1.1-1.25l-26.71-49.79c-.42.17-.87.25-1.32.25-.1 0-.19 0-.29-.02l-6.83 33.3a3.71 3.71 0 012.19 3.37c0 .52-.11 1.03-.34 1.52zm7.4-38.86l26.71 49.79c.52-.2 1.07-.3 1.61-.23l11.2-54.52a3.71 3.71 0 01-2.39-2.57l-35.57 4.52c0 1.21-.58 2.32-1.56 3.01zm130.14-173.3c-.02.14-.04.29-.08.45l5.56 3.67zm9.09 18.51l-11-15.17a4.9 4.9 0 01-4.14.87l-10.36 30.1c.27.17.52.38.73.63zm-17.58-22.46l-4.46-5.21c-.71.38-1.6.37-2.31-.06l-5.07 3.61 10.77 3.5c.23-.7.59-1.32 1.07-1.84zm-29.86-15.04l-14.51 2.79 31.44 10.23 5.48-3.9a2.27 2.27 0 01-.37-1.82l-13.45-6.17a4.69 4.69 0 01-8.59-1.13zm-87.48 21.71l-10.65-4.89a4.72 4.72 0 01-4.85 2.92l.16.45zm-32.51 1.33l-17.22 15.88c.54.72.85 1.57.92 2.46l2.35.9zm75.54 229.33l-7.01-2.28 7.02 2.64-.01-.36zm-16.2-8.82c.23.36.4.76.49 1.19l59.47-5.33 30.62-9.96a5.05 5.05 0 01-.08-.68l-59.32-7.55a3.68 3.68 0 01-6.05 1.59zm90.52-15.68a4.9 4.9 0 012.06-3.43l-15.84-27.85c-.6.41-1.3.63-2.03.63a3.69 3.69 0 01-2.96-1.5l-40.68 23.01c.19.46.28.92.28 1.4l-.01.18zm28.12-25.19a3 3 0 01.03-.43l-3.16-.59-16.77 23.11 20.85-19.27a4.67 4.67 0 01-.95-2.82zm20.26-43.24a4.9 4.9 0 013.02-1.41v-35.09l-3.79-1.54a4.73 4.73 0 01-2.97 1.07 4.73 4.73 0 01-4.66-4.19l-12.76-5.2a3.71 3.71 0 01-1.3 1.34l21.17 47.37c.2-.89.65-1.7 1.29-2.35zm-.06-38.75l3.08 1.26v-31.53a3.6 3.6 0 01-.95-.64l-23.34 19.51a3.59 3.59 0 01.45 2.94l12.4 5.05a4.68 4.68 0 014.68-4.25 4.73 4.73 0 013.68 7.66zm-7.56-69.1l-12.93-17.25a2.54 2.54 0 01-3.03-.53l-5.87 3.89 11.73 16.17 8.89-.41c.24-.72.66-1.36 1.21-1.87zm-189.39 173.13a4.92 4.92 0 017.49 4.89l5.49 1.78-.16-.33-.14-.45a3.9 3.9 0 01-.15-.98c0-.19.03-.35.05-.52l.11-.49a3.7 3.7 0 014.15-2.63l6.82-33.22a3.64 3.64 0 01-1.91-1.5l-27.41.2a4.69 4.69 0 01-5.99 4.15l-2 7.23a4.7 4.7 0 012.35 6.29zm201-68.43l5.6-25.27a4.7 4.7 0 01-2.32-6.34l-3.28-1.34zm3.75-32.41c.6-.8 1.44-1.38 2.4-1.67l-5.39-31.44c-.24.03-.49.01-.76-.04v31.61zm3.29-1.93v-58.95a5.85 5.85 0 01-.71-.12l-5.16 16.19a4.85 4.85 0 012.34 6.59l.68.62.02.08a3.68 3.68 0 01-2.54 4.26zm-57.71-108.07l-4-3.02 3.04 3.56c.3-.22.62-.4.96-.54zm-77.15-15.15a4.8 4.8 0 01-1.07-1.64l-51.31 16.7.08.29 26.06 5.95a4.67 4.67 0 016.53 1.49l.28.07 34.17-15.1a3.57 3.57 0 01-.28-2.55l-7.31-5.39-.17.18a4.93 4.93 0 01-6.98 0zM1224.8 567.6h.09c.37 0 .74.05 1.13.14l10.58-31.87a4.7 4.7 0 01-2.12-6.69l-9.68-7.16zm123.56 89.34a4.87 4.87 0 014.52 2.97l30.4-9.89-55.46 4.98c-.01.18-.03.37-.08.58l15.82 5.14a4.8 4.8 0 011.31-2.33 4.87 4.87 0 013.49-1.45zm56.83-9.81a4.68 4.68 0 118.18-2.85l5.14-3.77c-.16-.25-.3-.52-.41-.79l-26.56 8.64zm45.41-39.83c.45 0 .93.08 1.41.23l13.59-25.84a3.79 3.79 0 01-.91-.92l-21.34 29.4 2.73.52a4.7 4.7 0 014.52-3.39zm4.06 20.09a.3.3 0 00.1.04l34.41-67.62a6.04 6.04 0 01-.7-.55l-14.4 10.89a4.92 4.92 0 01-3.08 6.86c.15.29.25.58.31.86l.02.07-.03.07c-.54 1.4-.99 2.54-1.44 3.59l-.02.06-.06.05a3.65 3.65 0 01-2.46.63zm33.83-76.17l-8.4-11.13a4.45 4.45 0 01-3.48.55l-5.95 26.83a4.87 4.87 0 012.92 1.84l14.23-10.77a5.43 5.43 0 01.68-7.32zm-12.95-79.28a5.38 5.38 0 01-2.47-7.93l-25.98-19.94 12.18 16.27a4.56 4.56 0 014.07 8.12l5.63 19.49h.28c.39 0 .76.04 1.13.13zm-56.49-63.03l25 29.88a2.6 2.6 0 012.67 3.77l25.4 19.5zm24.03 30.24l-24.87-29.73a5.4 5.4 0 01-4.25.85l-.88 4.73a2.3 2.3 0 011.2 3.1l6.35 4.78a4.91 4.91 0 015.6 4.21l16.43 12.38c.13-.13.27-.23.42-.32zm-30.05-29.17a5.43 5.43 0 01-3.27-4.02l-12.71 1.22a4.61 4.61 0 01-.16 2.41l13.45 6.16.01-.02.32-.35a2.3 2.3 0 011.46-.56zm-3.38-5.03c0-.16.02-.32.04-.48l-77.77-12.33c-.06.44-.18.89-.35 1.33l10.56 7.8.17-.19a4.94 4.94 0 018.41 3.68l20.86 6.79 16.17-3.12c-.01-.11-.03-.23-.03-.35 0-2.6 2.12-4.72 4.72-4.72 1.9 0 3.58 1.12 4.33 2.87l12.89-1.24v-.04zm-68.09-2.89l-10.44-7.71a5.41 5.41 0 01-8.89.44l-68.51 34.96c.27.43.47.92.61 1.44l12-2.16a4.9 4.9 0 014.91-5.33 4.87 4.87 0 014.53 3.01l4.97-1.62a4.72 4.72 0 018.84-2.88l51.38-16.71a4.98 4.98 0 01.6-3.44zm-128.24 104.21a5.41 5.41 0 01.78 6.64l9.72 7.18v-24.16a4.78 4.78 0 01-1.22-.6zm10.38 83.62a5.44 5.44 0 013.66 7.93l22.31 16.06a4.65 4.65 0 012.31-1.81l-25.34-34.91c-.54.2-1.13.3-1.71.3zm2.17 9.68l56.01 56.07.27-.26-8.18-12.74a4.94 4.94 0 01-5.73-7.89l.12-.1-11.07-15.26a4.68 4.68 0 01-3.72 1.84 4.73 4.73 0 01-4.37-6.49l-22.38-16.1c-.28.34-.6.66-.95.93zm48.92 42.55l8.12 12.65c.89-.59 1.91-.9 2.95-.9a5.44 5.44 0 015.4 4.89l29.19-3.62-.01-.28c0-.2.02-.39.07-.61l-35.75-11.63a3.52 3.52 0 01-1.08-.36l-7.31-2.37a4.82 4.82 0 01-1.15 1.86c-.13.13-.28.25-.43.37zm16.34 18.52l77.64 12.31.08-.26-17.76-6.7a4.91 4.91 0 01-7.46-2.81l-16.48-6.21a3.64 3.64 0 01-2.98 1.59l-.05-.01-1.08-.23-.44-.1a3.71 3.71 0 01-1.94-2.12l-29.37 3.64c-.03.3-.08.6-.16.9zm61.87 2.92l16.41 7.81a5.43 5.43 0 018.4-1.2l28-20.37a4.87 4.87 0 01-.57-1.75l-17.61 1.58-34.46 11.21c.19.91.13 1.85-.17 2.72zm25.47 7.34l69.63-35.52c-.2-.32-.37-.67-.5-1.02l-20.05 3.1a4.9 4.9 0 01-4.9 5.31h-.01a4.91 4.91 0 01-3.49-1.45l-.04-.04-5.15 3.78a4.72 4.72 0 01-4.07 7.1 4.66 4.66 0 01-3.49-1.58zm73.09-54.27l1.08 10.4h.08c.33 0 .67.03 1 .1l12.59-44.81-13.45 25.57a4.7 4.7 0 01-1.3 8.74zm29.29-77.14l8.42 11.15a5.63 5.63 0 011.58-.69l-12.28-77.66c-.14.03-.28.04-.43.06v59.02c.25.03.5.08.75.15l.87.31a4.72 4.72 0 011.09 7.66z"/><path id="b" d="M1262 646.3a19.3 19.3 0 1138.6 0 19.3 19.3 0 01-38.6 0z"/><path id="c" d="M1287.48 639.15v15.5c0 1.18-.97 2.14-2.18 2.14h-9.12c-1.2 0-2.18-.96-2.18-2.14v-15.5c0-1.19.97-2.15 2.18-2.15h9.12c1.21 0 2.18.96 2.18 2.15zm-5.52 14.5c0-.66-.55-1.2-1.22-1.2-.67 0-1.22.54-1.22 1.2 0 .67.55 1.2 1.22 1.2a1.2 1.2 0 001.22-1.2zm3.64-14.68h-9.72v12.3h9.72z"/><path id="d" d="M1320 595.3a19.3 19.3 0 1138.6 0 19.3 19.3 0 01-38.6 0z"/><path id="e" d="M1334.38 601.11l.06-.05.04-.03a6.7 6.7 0 014.9-2.03h.16a6.7 6.7 0 014.94 2.06l.06.05c.41.36.5.9.21 1.2l-.92.92c-.3.3-.87.25-1.29-.11l-.03-.03v.01l-.03-.04-.11-.12a3.75 3.75 0 00-2.83-1.19v.01l-.06-.01h-.04l-.06.01v-.01a3.75 3.75 0 00-2.83 1.19l-.11.12-.03.04v-.01l-.03.03c-.42.36-1 .41-1.29.11l-.92-.92c-.29-.3-.2-.84.21-1.2z"/><path id="f" d="M1326.26 590.12l.08-.09.12-.09a19.38 19.38 0 0113.53-4.93 19.36 19.36 0 0113.65 5.02l.09.09c.33.36.35.88.02 1.21l-1.09 1.11c-.32.32-.86.35-1.26.09v.01l-.03-.02-.11-.09a15.89 15.89 0 00-11.19-4.13h-.16a15.86 15.86 0 00-11.05 4l-.13.13-.11.09-.03.02v-.01c-.41.26-.94.23-1.26-.09l-1.09-1.11c-.33-.33-.31-.85.02-1.21z"/><path id="g" d="M1330.36 595.56c.04-.03.08-.07.13-.09a12.58 12.58 0 018.8-3.47h.16a12.6 12.6 0 018.8 3.47l.13.09.05.05c.36.36.41.89.09 1.21l-1.02 1.03c-.31.31-.85.32-1.26.02l-.09-.06a1.3 1.3 0 01-.19-.22 9.43 9.43 0 00-6.59-2.53 9.44 9.44 0 00-6.6 2.53.97.97 0 01-.19.22l-.09.06c-.4.3-.95.29-1.26-.02l-1.02-1.03c-.32-.32-.27-.85.1-1.21l.05-.05z"/><path id="h" d="M1337 607.22a2.24 2.24 0 012.25-2.22c1.25 0 2.26 1 2.26 2.22a2.24 2.24 0 01-2.25 2.22c-1.25 0-2.26-1-2.26-2.22z"/><path id="i" d="M1202 585.14a19.14 19.14 0 1138.28 0 19.14 19.14 0 01-38.28 0z"/><path id="j" d="M1210.22 587.86c-.21-.51.27-.74.27-.74s.75-.47 1.62-.94c.87-.48.83-1.35.83-1.35.2-1.18-.48-1.49-.48-1.49l-2.16-1.21c-.43-.26-.27-.67-.27-.67l.82-1.99c.25-.54.88-.32.88-.32l2.19.53c.4.07 1.21-.52 1.21-.52.47-.36.62-1 .62-1l-.71-2.65c-.1-.35.3-.6.3-.6l2.01-.83c.48-.19.71.28.71.28l1.31 2.18c.19.2 1.02.28 1.02.28.79.15 1.37-.32 1.37-.32l1.23-2.17c.14-.36.61-.33.61-.33l2.19.82c.47.22.35.83.35.83l-.49 2.08c-.23.61.52 1.33.52 1.33.45.49 1.18.5 1.18.5l2.12-.67c.74-.22.99.46.99.46l.78 1.73c.25.62-.35.88-.35.88l-1.82 1.1c-.66.36-.52 1.4-.52 1.4-.03.93.49 1.16.49 1.16l1.85 1.06c.63.28.41.91.41.91l-.72 1.78c-.41.64-.87.44-.87.44l-2.25-.52c-.8-.19-1.39.75-1.39.75-.54.6-.28 1.14-.28 1.14l.58 2.01c.16.46-.36.8-.36.8l-1.88.79c-.65.3-.87-.2-.87-.2l-1.21-1.99c-.35-.52-1.34-.44-1.34-.44-.99-.05-1.3.68-1.3.68l-.92 1.66c-.16.47-.75.42-.75.42l-2.11-.79c-.52-.29-.35-.74-.35-.74l.53-2.63c.06-.45-.75-.99-.75-.99-.59-.51-1.13-.35-1.13-.35l-1.9.51c-.69.26-.83-.1-.83-.1s-.78-1.45-.98-1.96zm12.13.36a4.09 4.09 0 002.2-5.4 4.2 4.2 0 00-5.48-2.17 4.1 4.1 0 00-2.2 5.4 4.2 4.2 0 005.48 2.17z"/><path id="k" d="M1248 550.3a19.3 19.3 0 1138.6 0 19.3 19.3 0 01-38.6 0z"/><path id="l" d="M1278.29 541.71v13.27c0 .94-.77 1.71-1.73 1.71h-6.88v1.61h6.32c.52 0 .95.43.95.95s-.43.95-.95.95h-18.44a.96.96 0 01-.95-.95c0-.52.43-.95.95-.95h6.94v-1.61h-7.77c-.95 0-1.73-.77-1.73-1.71v-13.27c0-.95.78-1.71 1.73-1.71h19.83c.96 0 1.73.76 1.73 1.71zm-2.08 2.21c0-.83-.68-1.51-1.51-1.51h-16.1c-.83 0-1.51.68-1.51 1.51v8.86c0 .83.68 1.5 1.51 1.5h16.1a1.5 1.5 0 001.51-1.5z"/><path id="m" d="M1449 495.3a19.3 19.3 0 1138.6 0 19.3 19.3 0 01-38.6 0z"/><path id="n" d="M1467.85 505.91v-8.01c0-1.05-.86-1.9-1.93-1.9-1.06 0-1.92.85-1.92 1.9v8.01z"/><path id="o" d="M1472.85 506.01V492.9c0-1.05-.86-1.9-1.93-1.9-1.06 0-1.92.85-1.92 1.9v13.11z"/><path id="p" d="M1477.85 505.89V487.9c0-1.05-.86-1.9-1.92-1.9-1.07 0-1.93.85-1.93 1.9v17.99z"/><path id="q" d="M1462.85 505.99v-3.09c0-1.05-.86-1.9-1.92-1.9-1.07 0-1.93.85-1.93 1.9v3.09z"/><path id="r" d="M1386 556.14a19.22 19.22 0 0119.3-19.14c10.66 0 19.3 8.57 19.3 19.14a19.22 19.22 0 01-19.3 19.14 19.22 19.22 0 01-19.3-19.14z"/><path id="s" d="M1418.33 558.99c0 2.6-2.13 4.71-4.76 4.71h-15.8a4.72 4.72 0 01-4.77-4.71 4.72 4.72 0 013.37-4.5 4.74 4.74 0 015.36-3.28 6.32 6.32 0 015.52-3.21 6.3 6.3 0 016.33 6.28 4.73 4.73 0 014.75 4.71zm-7.91-3.14h-3.17v-4.71h-3.17v4.71h-3.16l4.75 6.28z"/><path id="t" d="M1396 643.3a19.3 19.3 0 1138.6 0 19.3 19.3 0 01-38.6 0z"/><path id="u" d="M1420.93 646.71c-.84 0-1.61.28-2.23.76l-6.4-3.84a3.83 3.83 0 000-1.2l6.4-3.84a3.67 3.67 0 10-1.39-2.31l-6.4 3.84a3.68 3.68 0 100 5.83l6.4 3.83a3.67 3.67 0 107.3.61 3.68 3.68 0 00-3.68-3.68z"/><path id="v" d="M1317 489.3c0-10.66 8.57-19.3 19.14-19.3a19.22 19.22 0 0119.14 19.3c0 10.66-8.57 19.3-19.14 19.3a19.22 19.22 0 01-19.14-19.3z"/><path id="w" d="M1337.88 479.12c-.32 3.14-1.4 5.51-2.06 8.3a13.4 13.4 0 00-8.82-.59c.6-2.66 1.45-5.06 2.06-7.71 2.18-1.8 6.43-1.15 8.82 0z"/><path id="x" d="M1339.35 481c2.25 1.33 5.94 1.46 8.82.6-.87 2.57-1.4 5.49-2.35 8-2.42 1.29-7.05 1.2-8.82-.59.74-2.72 1.48-5.43 2.35-8.01z"/><path id="y" d="M1334.88 489.18c-.46 3-1.63 5.27-2.06 8.3-2.59-1.2-5.9-2-8.82-.59.37-2.99 1.36-5.35 2.06-8 2.26-1.42 6.77-1 8.82.29z"/><path id="z" d="M1336.35 490c2.25 1.6 6 1.69 8.82.59-.83 2.62-1.5 5.41-2.35 8.01-2.27 1.56-6.73 1.32-8.82-.3a46.8 46.8 0 012.35-8.3z"/><path id="A" d="M1448 574.14a19.14 19.14 0 1138.28 0 19.14 19.14 0 01-38.28 0z"/><path id="B" d="M1478.88 574.44a11.44 11.44 0 11-22.88 0 11.44 11.44 0 0122.88 0zm-2.86 0a8.6 8.6 0 00-17.16 0 8.6 8.6 0 0017.16 0zm-1.43 0c0 .79-.64 1.43-1.43 1.43h-5.72c-.79 0-1.43-.64-1.43-1.43v-5.72a1.43 1.43 0 112.86 0v4.29h4.29c.79 0 1.43.64 1.43 1.43z"/><path id="C" d="M1364 440.3a19.3 19.3 0 1138.6 0 19.3 19.3 0 01-38.6 0z"/><path id="D" d="M1389.67 433.59a2.3 2.3 0 100 4.6 2.3 2.3 0 000-4.6zm-13 0a2.3 2.3 0 000 4.59 2.3 2.3 0 000-4.59zm6.5-4.59a3.4 3.4 0 100 6.8 3.4 3.4 0 000-6.8zm10.17 13.74a3.67 3.67 0 00-4.71-3.51c.43.84.7 1.78.7 2.79v7.32h4.01zm-15.64-3.51a3.67 3.67 0 00-4.7 3.5v6.61h4v-7.32c0-1.01.27-1.95.7-2.79zm.14 12.23h10.65v-9.44a5.33 5.33 0 00-10.65 0z"/><path id="E" d="M1226 446.3a19.3 19.3 0 1138.6 0 19.3 19.3 0 01-38.6 0z"/><path id="F" d="M1258.8 445.06v1.13c0 1.25-.88 2.32-2.08 2.6v1.06a2.7 2.7 0 01-2.71 2.68h-19.3a2.7 2.7 0 01-2.71-2.68v-8.17a2.7 2.7 0 012.71-2.68h19.3a2.7 2.7 0 012.71 2.68v.79a2.68 2.68 0 012.08 2.59zm-3.93 4.23v-6.88c.01-1.12-.37-1.69-1.58-1.67h-17.95c-1.17-.02-1.56.53-1.58 1.67v6.88c-.06 1.23.52 1.73 1.58 1.67h17.95c1.05-.04 1.67-.41 1.58-1.67z"/><path id="G" d="M1239 450.65V442h2.68v8.65z"/><path id="H" d="M1243 450.65V442h2.68v8.65z"/><path id="I" d="M1237.8 442h-1.36c-1.06-.02-1.42.45-1.44 1.42v5.82c-.05 1.04.48 1.46 1.44 1.41h1.36z"/><path id="J" d="M1315 399.3c0-10.66 8.57-19.3 19.14-19.3a19.22 19.22 0 0119.14 19.3c0 10.66-8.57 19.3-19.14 19.3a19.22 19.22 0 01-19.14-19.3z"/><path id="K" d="M1343.53 408.04h-17.13c-.43 0-.72-.34-.72-.76l-1.63-8.44c-.24-.82.44-.78.44-.78h1.55l-.01-3.76c0-.39.32-.71.71-.72h-.01c.29 0 .51-.52.51-.73v-.08c0-.42.34-.77.76-.77h4.83c.43 0 .77.35.77.77v.08c0 .2.22.72.5.73h9.07c.4 0 .72.32.72.72v12.98s.06.76-.36.76zm-.52-8.89v-3.96h-16.09v2.88h13.76s.56-.03.7.47l1.62 9.07z"/></defs><g transform="translate(-1201 -380)"><use fill="#dde2e1" xlink:href="#a"/><use fill="#fff" fill-opacity="0" stroke="#969796" stroke-miterlimit="50" xlink:href="#a"/><use fill="#0492de" xlink:href="#b"/><use fill="#fff" fill-opacity="0" stroke="#0572a3" stroke-miterlimit="50" xlink:href="#b"/><use fill="#fafafa" xlink:href="#c"/><use fill="#0492de" xlink:href="#d"/><use fill="#fff" fill-opacity="0" stroke="#0572a3" stroke-miterlimit="50" xlink:href="#d"/><use fill="#fafafa" xlink:href="#e"/><use fill="#fafafa" xlink:href="#f"/><use fill="#fafafa" xlink:href="#g"/><use fill="#fafafa" xlink:href="#h"/><use fill="#0492de" xlink:href="#i"/><use fill="#fff" fill-opacity="0" stroke="#0572a3" stroke-miterlimit="50" xlink:href="#i"/><use fill="#fafafa" xlink:href="#j"/><use fill="#0492de" xlink:href="#k"/><use fill="#fff" fill-opacity="0" stroke="#0572a3" stroke-miterlimit="50" xlink:href="#k"/><use fill="#fafafa" xlink:href="#l"/><use fill="#0492de" xlink:href="#m"/><use fill="#fff" fill-opacity="0" stroke="#0572a3" stroke-miterlimit="50" xlink:href="#m"/><use fill="#fafafa" xlink:href="#n"/><use fill="#fafafa" xlink:href="#o"/><use fill="#fafafa" xlink:href="#p"/><use fill="#fafafa" xlink:href="#q"/><use fill="#0492de" xlink:href="#r"/><use fill="#fff" fill-opacity="0" stroke="#0572a3" stroke-miterlimit="50" xlink:href="#r"/><use fill="#fafafa" xlink:href="#s"/><use fill="#0492de" xlink:href="#t"/><use fill="#fff" fill-opacity="0" stroke="#0572a3" stroke-miterlimit="50" xlink:href="#t"/><use fill="#fafafa" xlink:href="#u"/><use fill="#0492de" xlink:href="#v"/><use fill="#fff" fill-opacity="0" stroke="#0572a3" stroke-miterlimit="50" xlink:href="#v"/><use fill="#fafafa" xlink:href="#w"/><use fill="#fafafa" xlink:href="#x"/><use fill="#fafafa" xlink:href="#y"/><use fill="#fafafa" xlink:href="#z"/><use fill="#0492de" xlink:href="#A"/><use fill="#fff" fill-opacity="0" stroke="#0572a3" stroke-miterlimit="50" xlink:href="#A"/><use fill="#fafafa" xlink:href="#B"/><use fill="#0492de" xlink:href="#C"/><use fill="#fff" fill-opacity="0" stroke="#0572a3" stroke-miterlimit="50" xlink:href="#C"/><use fill="#fafafa" xlink:href="#D"/><use fill="#0492de" xlink:href="#E"/><use fill="#fff" fill-opacity="0" stroke="#0572a3" stroke-miterlimit="50" xlink:href="#E"/><use fill="#fafafa" xlink:href="#F"/><use fill="#fafafa" xlink:href="#G"/><use fill="#fafafa" xlink:href="#H"/><use fill="#fafafa" xlink:href="#I"/><use fill="#0492de" xlink:href="#J"/><use fill="#fff" fill-opacity="0" stroke="#0572a3" stroke-miterlimit="50" xlink:href="#J"/><use fill="#fafafa" xlink:href="#K"/></g></svg>