<svg xmlns="http://www.w3.org/2000/svg" viewBox="0 0 42 33"><path d="M38.3 27.1h-.5V33l-6.3-5.9h-11c-1.8 0-3.2-1.3-3.7-3H18c.3 1.1 1.2 1.7 2.3 1.7h11.5l4.6 4.4v-4.4h1.7c1.4 0 2.5-1.1 2.5-2.5V12.8c0-1.4-1.1-2.5-2.5-2.5h-6.4V9.1h6.4c2.1 0 3.8 1.7 3.8 3.8v10.5c.1 1.9-1.6 3.7-3.6 3.7zm-13.2-5.7H12.3l-7.4 6.9v-6.9h-.5c-2.5 0-4.4-2-4.4-4.5V4.5C0 2 2 0 4.4 0h20.8c2.5 0 4.4 2 4.4 4.5v12.4c.1 2.5-1.9 4.5-4.5 4.5zm3.1-16.9c0-1.6-1.2-3-2.9-3H4.4c-1.5 0-2.9 1.3-2.9 3V17c0 1.6 1.2 3 2.9 3h2v5l5.4-5.2h13.5c1.5 0 2.9-1.3 2.9-3V4.5z" fill-rule="evenodd" clip-rule="evenodd" fill="#58595b"/></svg>