<svg version="1.1" id="图层_1" xmlns="http://www.w3.org/2000/svg" x="0" y="0" viewBox="0 0 652 215.4" xml:space="preserve"><style>.st0{fill:#fff}</style><g id="XMLID_52_"><path class="st0" d="M224.4 151V72.9h31.9v75.6l45-14.5L248 12.5 5 26.1 52.6 146V71.9h33.5c3.8.1 8.9.6 13.8 1 21.5 2.1 30.7 13.7 30.7 29s-20.2 25.9-39.8 25.9c-2.3 0-4.3 0-6.3-.1V151H54.6l22 55.5L248.4 151h-24zm-11.5-21.9V147c-66 16.9-79.1-16.1-79.1-37.8 0-21.7 23.6-47.4 78.7-33.8l.4 19.4c-39.5-10.2-45.2 9.6-45.2 17.2-.1 7.6 7.7 29.7 45.2 17.1M241 28c10.6 0 19.1 8.6 19.1 19.1 0 10.6-8.6 19.1-19.1 19.1-10.6 0-19.1-8.6-19.1-19.1-.1-10.5 8.5-19.1 19.1-19.1"/><path id="XMLID_48_" class="st0" d="M100.7 99.4c0-5.4-3.2-9-10.8-9.7-1.7-.2-3.5-.3-4.8-.4h-2v19.6h3.6c6.9 0 14-4.1 14-9.5"/></g><path class="st0" d="M328.1 101.8c1.6 1 4 1.9 6.6 1.9 3.7 0 5.9-2 5.9-4.8 0-2.7-1.5-4.2-5.3-5.6-4.6-1.6-7.5-4-7.5-8 0-4.4 3.7-7.7 9.2-7.7 2.9 0 5 .7 6.3 1.4l-1 3c-.9-.5-2.8-1.3-5.4-1.3-3.9 0-5.3 2.3-5.3 4.3 0 2.7 1.7 4 5.6 5.5 4.8 1.9 7.2 4.2 7.2 8.3 0 4.4-3.2 8.2-9.9 8.2-2.7 0-5.7-.8-7.2-1.8l.8-3.4zm23.2-5.1c.1 5 3.3 7.1 7 7.1 2.7 0 4.3-.5 5.6-1.1l.6 2.7c-1.3.6-3.5 1.3-6.8 1.3-6.3 0-10-4.1-10-10.3 0-6.1 3.6-11 9.6-11 6.7 0 8.4 5.9 8.4 9.6 0 .8-.1 1.3-.1 1.7h-14.3zm10.9-2.6c0-2.4-1-6-5.1-6-3.7 0-5.4 3.5-5.7 6h10.8zm22.7 11.4c-1 .5-3.1 1.2-5.9 1.2-6.1 0-10.1-4.2-10.1-10.4 0-6.3 4.3-10.8 10.9-10.8 2.2 0 4.1.5 5.1 1.1l-.8 2.9c-.9-.5-2.3-1-4.3-1-4.7 0-7.2 3.5-7.2 7.7 0 4.7 3 7.6 7.1 7.6 2.1 0 3.5-.5 4.5-1l.7 2.7zm21.3-4.8c0 2.1 0 4 .2 5.6h-3.3l-.2-3.3h-.1c-1 1.6-3.1 3.8-6.7 3.8-3.2 0-7-1.8-7-8.9v-12h3.7v11.3c0 3.9 1.2 6.5 4.5 6.5 2.5 0 4.2-1.7 4.9-3.4.2-.5.3-1.2.3-1.9V85.9h3.7v14.8zm6.2-8.5c0-2.4 0-4.5-.2-6.4h3.2l.1 4h.2c.9-2.7 3.2-4.5 5.6-4.5.4 0 .7 0 1.1.1V89c-.4-.1-.8-.1-1.3-.1-2.6 0-4.5 2-5 4.8-.1.5-.2 1.1-.2 1.7v10.9h-3.7V92.2zm17.9-12.1c0 1.3-.9 2.3-2.4 2.3-1.3 0-2.2-1-2.2-2.3 0-1.3 1-2.3 2.3-2.3 1.4 0 2.3 1 2.3 2.3zm-4.1 26.1V85.9h3.7v20.4h-3.7zM440.5 80v5.9h5.3v2.8h-5.3v11c0 2.5.7 4 2.8 4 1 0 1.7-.1 2.1-.3l.2 2.8c-.7.3-1.9.5-3.3.5-1.7 0-3.1-.5-4-1.6-1.1-1.1-1.4-2.9-1.4-5.3V88.7h-3.2v-2.8h3.2V81l3.6-1zm11.6 5.9l4.5 12c.5 1.3 1 2.9 1.3 4.2h.1c.4-1.2.8-2.8 1.3-4.3l4-12h3.9l-5.6 14.5c-2.7 7-4.5 10.6-7 12.8-1.8 1.6-3.6 2.2-4.5 2.4l-.9-3.1c.9-.3 2.1-.9 3.2-1.8 1-.8 2.3-2.2 3.1-4.1.2-.4.3-.7.3-.9 0-.2-.1-.5-.3-1L448 85.8h4.1zm-124 60.6c1.6 1 4 1.9 6.6 1.9 3.7 0 5.9-2 5.9-4.8 0-2.7-1.5-4.2-5.3-5.6-4.6-1.6-7.5-4-7.5-8 0-4.4 3.7-7.7 9.2-7.7 2.9 0 5 .7 6.3 1.4l-1 3c-.9-.5-2.8-1.3-5.4-1.3-3.9 0-5.3 2.3-5.3 4.3 0 2.7 1.7 4 5.6 5.5 4.8 1.9 7.2 4.2 7.2 8.3 0 4.4-3.2 8.2-9.9 8.2-2.7 0-5.7-.8-7.2-1.8l.8-3.4zm25.6-21.8v5.9h5.3v2.8h-5.3v11c0 2.5.7 4 2.8 4 1 0 1.7-.1 2.1-.3l.2 2.8c-.7.3-1.9.5-3.3.5-1.7 0-3.1-.5-4-1.6-1.1-1.1-1.4-2.9-1.4-5.3v-11.1h-3.2v-2.8h3.2v-4.9l3.6-1zm20.8 26.3l-.3-2.6h-.2c-1.1 1.6-3.3 3-6.2 3-4.1 0-6.2-2.9-6.2-5.9 0-4.9 4.4-7.6 12.2-7.6v-.4c0-1.7-.5-4.7-4.6-4.7-1.9 0-3.9.6-5.3 1.5l-.8-2.4c1.7-1.1 4.1-1.8 6.7-1.8 6.2 0 7.7 4.3 7.7 8.3v7.6c0 1.8.1 3.5.3 4.9h-3.3zm-.6-10.4c-4-.1-8.6.6-8.6 4.6 0 2.4 1.6 3.5 3.5 3.5 2.7 0 4.3-1.7 4.9-3.4.1-.4.2-.8.2-1.2v-3.5zm9.6-4.5c0-2.1 0-3.8-.2-5.5h3.3l.2 3.4h.1c1-1.9 3.4-3.8 6.7-3.8 2.8 0 7.2 1.7 7.2 8.7V151h-3.7v-11.7c0-3.3-1.2-6-4.7-6-2.4 0-4.3 1.7-5 3.8-.2.5-.3 1.1-.3 1.7V151h-3.7v-14.9zm40.9-15v24.6c0 1.8 0 3.9.2 5.3h-3.3l-.2-3.5h-.1c-1.1 2.3-3.6 4-6.9 4-4.9 0-8.7-4.2-8.7-10.4 0-6.8 4.2-10.9 9.1-10.9 3.1 0 5.2 1.5 6.1 3.1h.1v-12.2h3.7zm-3.7 17.8c0-.5 0-1.1-.2-1.6-.5-2.4-2.6-4.3-5.3-4.3-3.8 0-6.1 3.4-6.1 7.9 0 4.1 2 7.5 6 7.5 2.5 0 4.8-1.6 5.4-4.4.1-.5.2-1 .2-1.6v-3.5zm21.2 12.1l-.3-2.6h-.1c-1.1 1.6-3.3 3-6.2 3-4.1 0-6.2-2.9-6.2-5.9 0-4.9 4.4-7.6 12.2-7.6v-.4c0-1.7-.5-4.7-4.6-4.7-1.9 0-3.9.6-5.3 1.5l-.8-2.4c1.7-1.1 4.1-1.8 6.7-1.8 6.2 0 7.7 4.3 7.7 8.3v7.6c0 1.8.1 3.5.3 4.9h-3.4zm-.6-10.4c-4-.1-8.6.6-8.6 4.6 0 2.4 1.6 3.5 3.5 3.5 2.7 0 4.3-1.7 4.9-3.4.1-.4.2-.8.2-1.2v-3.5zm9.6-3.7c0-2.4 0-4.5-.2-6.4h3.2l.1 4h.2c.9-2.7 3.2-4.5 5.6-4.5.4 0 .7 0 1.1.1v3.5c-.4-.1-.8-.1-1.3-.1-2.6 0-4.5 2-5 4.8-.1.5-.2 1.1-.2 1.7v11h-3.7v-14.1zm31.3-15.8v24.6c0 1.8 0 3.9.2 5.3h-3.3l-.2-3.5h-.1c-1.1 2.3-3.6 4-6.9 4-4.9 0-8.7-4.2-8.7-10.4 0-6.8 4.2-10.9 9.1-10.9 3.1 0 5.2 1.5 6.1 3.1h.1v-12.2h3.7zm-3.7 17.8c0-.5 0-1.1-.2-1.6-.5-2.4-2.6-4.3-5.3-4.3-3.8 0-6.1 3.4-6.1 7.9 0 4.1 2 7.5 6 7.5 2.5 0 4.8-1.6 5.4-4.4.1-.5.2-1 .2-1.6v-3.5zm9.4 8.3c1.1.7 3 1.5 4.9 1.5 2.7 0 4-1.3 4-3 0-1.8-1.1-2.7-3.8-3.7-3.7-1.3-5.4-3.3-5.4-5.8 0-3.3 2.7-6 7-6 2.1 0 3.9.6 5 1.3l-.9 2.7c-.8-.5-2.3-1.2-4.2-1.2-2.2 0-3.4 1.3-3.4 2.8 0 1.7 1.2 2.4 3.9 3.5 3.5 1.3 5.3 3.1 5.3 6.1 0 3.6-2.8 6.1-7.6 6.1-2.2 0-4.3-.5-5.7-1.4l.9-2.9zM539 150c-1.3.7-4 1.3-7.5 1.3-8 0-14-5.1-14-14.4 0-8.9 6-14.9 14.8-14.9 3.5 0 5.8.8 6.7 1.3l-.9 3c-1.4-.7-3.4-1.2-5.7-1.2-6.7 0-11.1 4.3-11.1 11.7 0 6.9 4 11.4 10.9 11.4 2.2 0 4.5-.5 6-1.2l.8 3zm22.4-9.4c0 7.5-5.2 10.8-10.1 10.8-5.5 0-9.8-4-9.8-10.5 0-6.8 4.5-10.8 10.1-10.8 5.9 0 9.8 4.3 9.8 10.5zm-16.2.2c0 4.5 2.6 7.8 6.2 7.8 3.5 0 6.2-3.3 6.2-7.9 0-3.5-1.7-7.8-6.1-7.8-4.4 0-6.3 4-6.3 7.9zm37.9 4.6c0 2.1 0 4 .2 5.6H580l-.2-3.3h-.1c-1 1.6-3.1 3.8-6.7 3.8-3.2 0-7-1.8-7-8.9v-11.9h3.7V142c0 3.9 1.2 6.5 4.5 6.5 2.5 0 4.2-1.7 4.9-3.4.2-.5.3-1.2.3-1.9v-12.5h3.7v14.7zm6.2-9.3c0-2.1 0-3.8-.2-5.5h3.3l.2 3.4h.1c1-1.9 3.4-3.8 6.7-3.8 2.8 0 7.2 1.7 7.2 8.7V151h-3.7v-11.7c0-3.3-1.2-6-4.7-6-2.4 0-4.3 1.7-5 3.8-.2.5-.3 1.1-.3 1.7V151h-3.7v-14.9zm37.9 14.1c-1 .5-3.1 1.2-5.9 1.2-6.1 0-10.1-4.2-10.1-10.4 0-6.3 4.3-10.8 10.9-10.8 2.2 0 4.1.5 5.1 1.1l-.8 2.9c-.9-.5-2.3-1-4.3-1-4.7 0-7.2 3.5-7.2 7.7 0 4.7 3 7.6 7.1 7.6 2.1 0 3.5-.5 4.5-1l.7 2.7zm8.4-25.3c0 1.3-.9 2.3-2.4 2.3-1.3 0-2.2-1-2.2-2.3 0-1.3 1-2.3 2.3-2.3 1.5-.1 2.3 1 2.3 2.3zm-4.1 26.1v-20.4h3.7V151h-3.7zm9.9-29.9h3.7V151h-3.7v-29.9zm6.5-40.4c0 6.2-4.8 11-11.1 11-6.2 0-11.2-4.8-11.2-11 0-6 5-10.9 11.2-10.9 6.3 0 11.1 4.9 11.1 10.9zm-20.3 0c0 5.3 3.9 9.5 9.2 9.5 5.2 0 9-4.2 9-9.4 0-5.3-3.8-9.5-9.1-9.5-5.2-.1-9.1 4.2-9.1 9.4zm7.5 5.7h-2.5V75.5c1-.2 2.4-.3 4.2-.3 2.1 0 3 .3 3.8.8.6.5 1.1 1.3 1.1 2.4 0 1.2-.9 2.1-2.3 2.5v.1c1.1.4 1.7 1.2 2 2.6.3 1.7.5 2.3.8 2.7h-2.7c-.3-.4-.5-1.4-.9-2.6-.2-1.2-.9-1.7-2.3-1.7h-1.2v4.4zm0-6.2h1.2c1.4 0 2.5-.5 2.5-1.6 0-1-.7-1.7-2.3-1.7-.7 0-1.1.1-1.4.1v3.2z"/></svg>