<?xml version="1.0" encoding="utf-8"?>
<!-- Generator: Adobe Illustrator 23.0.3, SVG Export Plug-In . SVG Version: 6.00 Build 0)  -->
<svg version="1.1" id="Layer_1" xmlns="http://www.w3.org/2000/svg" xmlns:xlink="http://www.w3.org/1999/xlink" x="0px" y="0px"
	 viewBox="0 0 48 48" style="enable-background:new 0 0 48 48;" xml:space="preserve">
<style type="text/css">
	.st0{fill-rule:evenodd;clip-rule:evenodd;fill:#FFFFFF;}
</style>
<path class="st0" d="M47.4,30.7l-5.3,5.3c-0.8,0.8-2.1,0.8-3,0l-0.4-0.4l1.2-1.2l0.4,0.4c0.1,0.1,0.4,0.1,0.5,0l5.3-5.3
	c0.1-0.1,0.1-0.4,0-0.5l-2.9-2.9c-0.1-0.1-0.4-0.1-0.5,0l-5.3,5.3c-0.1,0.1-0.1,0.4,0,0.5l0.4,0.4l-1.2,1.2l-0.4-0.4
	c-0.8-0.8-0.8-2.1,0-3l5.3-5.3c0.8-0.8,2.1-0.8,3,0l2.9,2.9C48.2,28.5,48.2,29.9,47.4,30.7z M35.8,25.7h-8.1v-1.4h8.1
	c1.3,0,2.4-1.1,2.4-2.4V12H27.7l-5-5.9h15.5V3.9c0-1.3-1.1-2.4-2.4-2.4H10.2c-1.3,0-2.4,1.1-2.4,2.4l0,0.8l-1.4,0V3.8
	C6.3,1.7,8.1,0,10.2,0h25.6c2.1,0,3.9,1.7,3.9,3.9v17.9C39.6,24,37.9,25.7,35.8,25.7z M25.5,13.2v20.1c0,2.2-1.8,4-4,4H4
	c-2.2,0-4-1.8-4-4V10.1c0-2.2,1.8-4,4-4h15.5L25.5,13.2z M19.9,8.4v3.6c0,0.4,0.4,0.8,0.8,0.8h2.9L19.9,8.4z M18.6,12.1V7.3H4
	c-1.5,0-2.8,1.2-2.8,2.7v23.3c0,1.5,1.2,2.7,2.8,2.7h17.5c1.5,0,2.8-1.2,2.8-2.7V14.1h-3.6C19.5,14.1,18.6,13.2,18.6,12.1z
	 M22.1,31.5h-2.9V17.7h2.9V31.5z M17.7,17.7h0.9v13.8h-0.9V17.7z M15.2,17.7h2.1v13.8h-2.1V17.7z M12.4,17.7h1.7v13.8h-1.7V17.7z
	 M10.7,17.7h0.9v13.8h-0.9V17.7z M8.5,17.7h1.6v13.8H8.5V17.7z M6.9,31.5V17.7h0.9v13.8H7.6H6.9z M3.1,17.7h2.9v13.8H3.1V17.7z
	 M32,40.2c-0.3-0.3-0.3-0.9,0-1.2l7-7c0.3-0.3,0.9-0.3,1.2,0c0.3,0.3,0.3,0.9,0,1.2l-7,7C32.9,40.5,32.4,40.5,32,40.2z M30.1,36.3
	c0.8-0.8,2.1-0.8,3,0l0.4,0.4l-1.2,1.2l-0.4-0.4c-0.1-0.1-0.4-0.1-0.5,0l-5.3,5.3c-0.1,0.1-0.1,0.4,0,0.5l2.9,2.9
	c0.1,0.1,0.4,0.1,0.5,0l5.3-5.3c0.1-0.1,0.1-0.4,0-0.5L34.3,40l1.2-1.2l0.4,0.4c0.8,0.8,0.8,2.1,0,3l-5.3,5.3c-0.8,0.8-2.1,0.8-3,0
	l-2.9-2.9c-0.8-0.8-0.8-2.1,0-3L30.1,36.3z"/>
</svg>
