<svg version="1.1" id="图层_1" xmlns="http://www.w3.org/2000/svg" xmlns:xlink="http://www.w3.org/1999/xlink" x="0px" y="0px"
 viewBox="0 0 652 215.4" style="enable-background:new 0 0 652 215.4;" xml:space="preserve"><style type="text/css">.st0{fill:#FFFFFF;}</style><g id="XMLID_52_"> <path class="st0" d="M224.4,151V72.9h31.9v75.6l45-14.5L248,12.5L5,26.1L52.6,146V71.9h31.9h1.6c3.8,0.1,8.9,0.6,13.8,1
 c21.5,2.1,30.7,13.7,30.7,29c0,15.3-20.2,25.9-39.8,25.9c-2.3,0-4.3,0-6.3-0.1V151H54.6l22,55.5L248.4,151H224.4z M212.9,129.1V147
 c-66,16.9-79.1-16.1-79.1-37.8c0-21.7,23.6-47.4,78.7-33.8l0.4,19.4c-39.5-10.2-45.2,9.6-45.2,17.2
 C167.6,119.6,175.4,141.7,212.9,129.1 M241,28c10.6,0,19.1,8.6,19.1,19.1c0,10.6-8.6,19.1-19.1,19.1c-10.6,0-19.1-8.6-19.1-19.1
 C221.8,36.6,230.4,28,241,28"/> <path id="XMLID_48_" class="st0" d="M100.7,99.4c0-5.4-3.2-9-10.8-9.7c-1.7-0.2-3.5-0.3-4.8-0.4h-0.6h-1.4v19.6c1.1,0,2.9,0,3.6,0
 C93.6,108.9,100.7,104.8,100.7,99.4"/> </g> <g> <path class="st0" d="M328.1,101.8c1.6,1,4,1.9,6.6,1.9c3.7,0,5.9-2,5.9-4.8c0-2.7-1.5-4.2-5.3-5.6c-4.6-1.6-7.5-4-7.5-8
 c0-4.4,3.7-7.7,9.2-7.7c2.9,0,5,0.7,6.3,1.4l-1,3c-0.9-0.5-2.8-1.3-5.4-1.3c-3.9,0-5.3,2.3-5.3,4.3c0,2.7,1.7,4,5.6,5.5
 c4.8,1.9,7.2,4.2,7.2,8.3c0,4.4-3.2,8.2-9.9,8.2c-2.7,0-5.7-0.8-7.2-1.8L328.1,101.8z"/> <path class="st0" d="M351.3,96.7c0.1,5,3.3,7.1,7,7.1c2.7,0,4.3-0.5,5.6-1.1l0.6,2.7c-1.3,0.6-3.5,1.3-6.8,1.3
 c-6.3,0-10-4.1-10-10.3c0-6.1,3.6-11,9.6-11c6.7,0,8.4,5.9,8.4,9.6c0,0.8-0.1,1.3-0.1,1.7H351.3z M362.2,94.1c0-2.4-1-6-5.1-6
 c-3.7,0-5.4,3.5-5.7,6H362.2z"/> <path class="st0" d="M384.9,105.5c-1,0.5-3.1,1.2-5.9,1.2c-6.1,0-10.1-4.2-10.1-10.4c0-6.3,4.3-10.8,10.9-10.8
 c2.2,0,4.1,0.5,5.1,1.1l-0.8,2.9c-0.9-0.5-2.3-1-4.3-1c-4.7,0-7.2,3.5-7.2,7.7c0,4.7,3,7.6,7.1,7.6c2.1,0,3.5-0.5,4.5-1
 L384.9,105.5z"/> <path class="st0" d="M406.2,100.7c0,2.1,0,4,0.2,5.6h-3.3l-0.2-3.3h-0.1c-1,1.6-3.1,3.8-6.7,3.8c-3.2,0-7-1.8-7-8.9V85.9h3.7v11.3
 c0,3.9,1.2,6.5,4.5,6.5c2.5,0,4.2-1.7,4.9-3.4c0.2-0.5,0.3-1.2,0.3-1.9V85.9h3.7V100.7z"/> <path class="st0" d="M412.4,92.2c0-2.4,0-4.5-0.2-6.4h3.2l0.1,4h0.2c0.9-2.7,3.2-4.5,5.6-4.5c0.4,0,0.7,0,1.1,0.1V89
 c-0.4-0.1-0.8-0.1-1.3-0.1c-2.6,0-4.5,2-5,4.8c-0.1,0.5-0.2,1.1-0.2,1.7v10.9h-3.7V92.2z"/> <path class="st0" d="M430.3,80.1c0,1.3-0.9,2.3-2.4,2.3c-1.3,0-2.2-1-2.2-2.3c0-1.3,1-2.3,2.3-2.3
 C429.4,77.8,430.3,78.8,430.3,80.1z M426.2,106.2V85.9h3.7v20.4H426.2z"/> <path class="st0" d="M440.5,80v5.9h5.3v2.8h-5.3v11c0,2.5,0.7,4,2.8,4c1,0,1.7-0.1,2.1-0.3l0.2,2.8c-0.7,0.3-1.9,0.5-3.3,0.5
 c-1.7,0-3.1-0.5-4-1.6c-1.1-1.1-1.4-2.9-1.4-5.3V88.7h-3.2v-2.8h3.2V81L440.5,80z"/> </g> <g> <path class="st0" d="M452.1,85.9l4.5,12c0.5,1.3,1,2.9,1.3,4.2h0.1c0.4-1.2,0.8-2.8,1.3-4.3l4-12h3.9l-5.6,14.5
 c-2.7,7-4.5,10.6-7,12.8c-1.8,1.6-3.6,2.2-4.5,2.4l-0.9-3.1c0.9-0.3,2.1-0.9,3.2-1.8c1-0.8,2.3-2.2,3.1-4.1
 c0.2-0.4,0.3-0.7,0.3-0.9c0-0.2-0.1-0.5-0.3-1l-7.5-18.8H452.1z"/> </g> <g> <path class="st0" d="M328.1,146.5c1.6,1,4,1.9,6.6,1.9c3.7,0,5.9-2,5.9-4.8c0-2.7-1.5-4.2-5.3-5.6c-4.6-1.6-7.5-4-7.5-8
 c0-4.4,3.7-7.7,9.2-7.7c2.9,0,5,0.7,6.3,1.4l-1,3c-0.9-0.5-2.8-1.3-5.4-1.3c-3.9,0-5.3,2.3-5.3,4.3c0,2.7,1.7,4,5.6,5.5
 c4.8,1.9,7.2,4.2,7.2,8.3c0,4.4-3.2,8.2-9.9,8.2c-2.7,0-5.7-0.8-7.2-1.8L328.1,146.5z"/> <path class="st0" d="M353.7,124.7v5.9h5.3v2.8h-5.3v11c0,2.5,0.7,4,2.8,4c1,0,1.7-0.1,2.1-0.3l0.2,2.8c-0.7,0.3-1.9,0.5-3.3,0.5
 c-1.7,0-3.1-0.5-4-1.6c-1.1-1.1-1.4-2.9-1.4-5.3v-11.1h-3.2v-2.8h3.2v-4.9L353.7,124.7z"/> <path class="st0" d="M374.5,151l-0.3-2.6H374c-1.1,1.6-3.3,3-6.2,3c-4.1,0-6.2-2.9-6.2-5.9c0-4.9,4.4-7.6,12.2-7.6v-0.4
 c0-1.7-0.5-4.7-4.6-4.7c-1.9,0-3.9,0.6-5.3,1.5l-0.8-2.4c1.7-1.1,4.1-1.8,6.7-1.8c6.2,0,7.7,4.3,7.7,8.3v7.6c0,1.8,0.1,3.5,0.3,4.9
 H374.5z M373.9,140.6c-4-0.1-8.6,0.6-8.6,4.6c0,2.4,1.6,3.5,3.5,3.5c2.7,0,4.3-1.7,4.9-3.4c0.1-0.4,0.2-0.8,0.2-1.2V140.6z"/> <path class="st0" d="M383.5,136.1c0-2.1,0-3.8-0.2-5.5h3.3l0.2,3.4h0.1c1-1.9,3.4-3.8,6.7-3.8c2.8,0,7.2,1.7,7.2,8.7V151h-3.7
 v-11.7c0-3.3-1.2-6-4.7-6c-2.4,0-4.3,1.7-5,3.8c-0.2,0.5-0.3,1.1-0.3,1.7V151h-3.7V136.1z"/> <path class="st0" d="M424.4,121.1v24.6c0,1.8,0,3.9,0.2,5.3h-3.3l-0.2-3.5H421c-1.1,2.3-3.6,4-6.9,4c-4.9,0-8.7-4.2-8.7-10.4
 c0-6.8,4.2-10.9,9.1-10.9c3.1,0,5.2,1.5,6.1,3.1h0.1v-12.2H424.4z M420.7,138.9c0-0.5,0-1.1-0.2-1.6c-0.5-2.4-2.6-4.3-5.3-4.3
 c-3.8,0-6.1,3.4-6.1,7.9c0,4.1,2,7.5,6,7.5c2.5,0,4.8-1.6,5.4-4.4c0.1-0.5,0.2-1,0.2-1.6V138.9z"/> <path class="st0" d="M441.9,151l-0.3-2.6h-0.1c-1.1,1.6-3.3,3-6.2,3c-4.1,0-6.2-2.9-6.2-5.9c0-4.9,4.4-7.6,12.2-7.6v-0.4
 c0-1.7-0.5-4.7-4.6-4.7c-1.9,0-3.9,0.6-5.3,1.5l-0.8-2.4c1.7-1.1,4.1-1.8,6.7-1.8c6.2,0,7.7,4.3,7.7,8.3v7.6c0,1.8,0.1,3.5,0.3,4.9
 H441.9z M441.3,140.6c-4-0.1-8.6,0.6-8.6,4.6c0,2.4,1.6,3.5,3.5,3.5c2.7,0,4.3-1.7,4.9-3.4c0.1-0.4,0.2-0.8,0.2-1.2V140.6z"/> <path class="st0" d="M450.9,136.9c0-2.4,0-4.5-0.2-6.4h3.2l0.1,4h0.2c0.9-2.7,3.2-4.5,5.6-4.5c0.4,0,0.7,0,1.1,0.1v3.5
 c-0.4-0.1-0.8-0.1-1.3-0.1c-2.6,0-4.5,2-5,4.8c-0.1,0.5-0.2,1.1-0.2,1.7V151h-3.7V136.9z"/> <path class="st0" d="M482.2,121.1v24.6c0,1.8,0,3.9,0.2,5.3h-3.3l-0.2-3.5h-0.1c-1.1,2.3-3.6,4-6.9,4c-4.9,0-8.7-4.2-8.7-10.4
 c0-6.8,4.2-10.9,9.1-10.9c3.1,0,5.2,1.5,6.1,3.1h0.1v-12.2H482.2z M478.5,138.9c0-0.5,0-1.1-0.2-1.6c-0.5-2.4-2.6-4.3-5.3-4.3
 c-3.8,0-6.1,3.4-6.1,7.9c0,4.1,2,7.5,6,7.5c2.5,0,4.8-1.6,5.4-4.4c0.1-0.5,0.2-1,0.2-1.6V138.9z"/> <path class="st0" d="M487.9,147.2c1.1,0.7,3,1.5,4.9,1.5c2.7,0,4-1.3,4-3c0-1.8-1.1-2.7-3.8-3.7c-3.7-1.3-5.4-3.3-5.4-5.8
 c0-3.3,2.7-6,7-6c2.1,0,3.9,0.6,5,1.3l-0.9,2.7c-0.8-0.5-2.3-1.2-4.2-1.2c-2.2,0-3.4,1.3-3.4,2.8c0,1.7,1.2,2.4,3.9,3.5
 c3.5,1.3,5.3,3.1,5.3,6.1c0,3.6-2.8,6.1-7.6,6.1c-2.2,0-4.3-0.5-5.7-1.4L487.9,147.2z"/> </g> <g> <path class="st0" d="M539,150c-1.3,0.7-4,1.3-7.5,1.3c-8,0-14-5.1-14-14.4c0-8.9,6-14.9,14.8-14.9c3.5,0,5.8,0.8,6.7,1.3l-0.9,3
 c-1.4-0.7-3.4-1.2-5.7-1.2c-6.7,0-11.1,4.3-11.1,11.7c0,6.9,4,11.4,10.9,11.4c2.2,0,4.5-0.5,6-1.2L539,150z"/> </g> <g> <path class="st0" d="M561.4,140.6c0,7.5-5.2,10.8-10.1,10.8c-5.5,0-9.8-4-9.8-10.5c0-6.8,4.5-10.8,10.1-10.8
 C557.5,130.1,561.4,134.4,561.4,140.6z M545.2,140.8c0,4.5,2.6,7.8,6.2,7.8c3.5,0,6.2-3.3,6.2-7.9c0-3.5-1.7-7.8-6.1-7.8
 C547.1,132.9,545.2,136.9,545.2,140.8z"/> <path class="st0" d="M583.1,145.4c0,2.1,0,4,0.2,5.6H580l-0.2-3.3h-0.1c-1,1.6-3.1,3.8-6.7,3.8c-3.2,0-7-1.8-7-8.9v-11.9h3.7v11.3
 c0,3.9,1.2,6.5,4.5,6.5c2.5,0,4.2-1.7,4.9-3.4c0.2-0.5,0.3-1.2,0.3-1.9v-12.5h3.7V145.4z"/> <path class="st0" d="M589.3,136.1c0-2.1,0-3.8-0.2-5.5h3.3l0.2,3.4h0.1c1-1.9,3.4-3.8,6.7-3.8c2.8,0,7.2,1.7,7.2,8.7V151h-3.7
 v-11.7c0-3.3-1.2-6-4.7-6c-2.4,0-4.3,1.7-5,3.8c-0.2,0.5-0.3,1.1-0.3,1.7V151h-3.7V136.1z"/> <path class="st0" d="M627.2,150.2c-1,0.5-3.1,1.2-5.9,1.2c-6.1,0-10.1-4.2-10.1-10.4c0-6.3,4.3-10.8,10.9-10.8
 c2.2,0,4.1,0.5,5.1,1.1l-0.8,2.9c-0.9-0.5-2.3-1-4.3-1c-4.7,0-7.2,3.5-7.2,7.7c0,4.7,3,7.6,7.1,7.6c2.1,0,3.5-0.5,4.5-1
 L627.2,150.2z"/> <path class="st0" d="M635.6,124.9c0,1.3-0.9,2.3-2.4,2.3c-1.3,0-2.2-1-2.2-2.3c0-1.3,1-2.3,2.3-2.3
 C634.8,122.5,635.6,123.6,635.6,124.9z M631.5,151v-20.4h3.7V151H631.5z"/> <path class="st0" d="M641.4,121.1h3.7V151h-3.7V121.1z"/> </g> <g> <path class="st0" d="M647.9,80.7c0,6.2-4.8,11-11.1,11c-6.2,0-11.2-4.8-11.2-11c0-6,5-10.9,11.2-10.9
 C643.1,69.8,647.9,74.7,647.9,80.7z M627.6,80.7c0,5.3,3.9,9.5,9.2,9.5c5.2,0,9-4.2,9-9.4c0-5.3-3.8-9.5-9.1-9.5
 C631.5,71.2,627.6,75.5,627.6,80.7z M635.1,86.4h-2.5V75.5c1-0.2,2.4-0.3,4.2-0.3c2.1,0,3,0.3,3.8,0.8c0.6,0.5,1.1,1.3,1.1,2.4
 c0,1.2-0.9,2.1-2.3,2.5V81c1.1,0.4,1.7,1.2,2,2.6c0.3,1.7,0.5,2.3,0.8,2.7h-2.7c-0.3-0.4-0.5-1.4-0.9-2.6c-0.2-1.2-0.9-1.7-2.3-1.7
 h-1.2V86.4z M635.1,80.2h1.2c1.4,0,2.5-0.5,2.5-1.6c0-1-0.7-1.7-2.3-1.7c-0.7,0-1.1,0.1-1.4,0.1V80.2z"/> </g> </svg>